<svg xmlns="http://www.w3.org/2000/svg" width="375" viewBox="0 0 375 375" height="375" version="1.0"><defs><clipPath id="a"><path d="M 74 17.726562 L 332 17.726562 L 332 289 L 74 289 Z M 74 17.726562"/></clipPath></defs><path fill="#153647" d="M 374.5 170.683594 L 64.722656 60.40625 L 56.546875 84.226562 L 172.125 249.113281 L 366.066406 194.40625 L 374.5 170.683594"/><path fill="#153647" d="M 374.5 170.683594 L 64.722656 60.40625 L 56.546875 84.226562 L 180.375 225.910156 L 366.066406 194.40625 L 374.5 170.683594"/><path fill="#255F7D" d="M 366.21875 193.976562 L 56.441406 83.695312 L 65.136719 60.0625 L 250.574219 28.476562 L 374.65625 170.25 L 366.21875 193.976562"/><g clip-path="url(#a)"><path fill="#FFF" d="M 253.753906 288.371094 L 331.984375 86.1875 L 155.296875 17.738281 L 74.695312 226.4375 L 253.753906 288.371094"/></g><path fill="#1B455A" d="M 180.375 225.910156 L 56.546875 84.226562 L 172.125 249.113281 L 366.066406 194.40625 L 180.375 225.910156"/><path fill="#1E4C64" d="M 193.214844 189.804688 L 5.367188 227.34375 L 4 231.203125 C 0.269531 241.683594 5.742188 253.207031 16.226562 256.941406 L 288.0625 353.710938 C 298.539062 357.4375 310.046875 351.960938 313.777344 341.476562 L 315.144531 337.621094 L 193.214844 189.804688"/><path fill="#255F7D" d="M 184.824219 213.402344 L 5.367188 227.34375 L 4 231.203125 C 0.269531 241.683594 5.742188 253.207031 16.226562 256.941406 L 288.0625 353.710938 C 298.539062 357.4375 310.046875 351.960938 313.777344 341.476562 L 315.144531 337.621094 L 184.824219 213.402344"/><path fill="#255F7D" d="M 315.144531 337.621094 L 366.066406 194.40625 L 228.925781 233.09375 Z M 315.144531 337.621094"/><path fill="#255F7D" d="M 56.546875 84.226562 L 57.511719 81.410156 C 57.050781 82.277344 56.628906 83.179688 56.289062 84.132812 L 5.367188 227.34375 L 138.25 200.789062 L 56.546875 84.226562"/><path fill="#153647" d="M 228.890625 118.914062 L 227.941406 122.144531 L 225.578125 130.222656 L 220.519531 147.480469 C 218.492188 148.5625 216.589844 149.277344 214.8125 149.636719 C 213.035156 149.992188 211.125 149.871094 209.070312 149.269531 C 205.167969 148.125 202.804688 145.804688 201.988281 142.304688 C 201.167969 138.808594 201.679688 133.941406 203.503906 127.703125 C 203.878906 126.425781 204.289062 125.230469 204.730469 124.105469 C 205.921875 121.046875 207.351562 118.550781 209.03125 116.597656 C 209.523438 116.015625 210.03125 115.464844 210.570312 114.984375 C 211.007812 114.589844 211.460938 114.25 211.914062 113.933594 C 212.589844 113.464844 213.289062 113.085938 214.003906 112.792969 C 216.113281 111.949219 218.371094 111.871094 220.789062 112.578125 C 222.515625 113.089844 224.023438 113.730469 225.292969 114.511719 C 226.382812 115.183594 227.507812 116.046875 228.664062 117.09375 C 228.863281 117.277344 229.0625 117.445312 229.261719 117.640625 Z M 267.957031 130.375 C 267.992188 129.792969 268.007812 129.21875 268.023438 128.640625 C 268.058594 127.460938 268.058594 126.289062 268.015625 125.128906 C 267.980469 124.132812 267.910156 123.140625 267.8125 122.164062 C 267.121094 115.246094 265.210938 108.9375 262.089844 103.21875 C 259.046875 97.519531 254.867188 92.570312 249.578125 88.355469 C 244.269531 84.144531 238.152344 81.019531 231.210938 78.980469 C 224.226562 76.9375 217.242188 76.324219 210.25 77.144531 C 203.261719 77.96875 196.867188 80.011719 191.066406 83.285156 C 185.125 86.597656 179.929688 91.003906 175.496094 96.5 C 175.171875 96.894531 174.875 97.3125 174.566406 97.71875 C 173.847656 98.660156 173.152344 99.628906 172.503906 100.621094 C 172.1875 101.105469 171.882812 101.605469 171.582031 102.105469 C 170.988281 103.085938 170.414062 104.082031 169.871094 105.113281 C 168.589844 107.570312 167.472656 110.164062 166.527344 112.898438 C 166.207031 113.835938 165.902344 114.785156 165.617188 115.753906 C 163.382812 123.371094 162.574219 130.765625 163.199219 137.9375 C 163.816406 145.105469 165.691406 151.613281 168.820312 157.464844 C 171.976562 163.359375 176.257812 168.449219 181.664062 172.738281 C 187.070312 177.027344 193.382812 180.230469 200.605469 182.34375 C 204.90625 183.609375 208.933594 184.550781 212.6875 185.183594 C 216.449219 185.8125 220.28125 186.253906 224.195312 186.496094 L 227.554688 175.011719 C 223.960938 175.027344 219.929688 174.710938 215.476562 174.070312 C 211.019531 173.425781 207.117188 172.617188 203.765625 171.636719 C 198.726562 170.15625 194.191406 167.863281 190.179688 164.753906 C 186.164062 161.648438 182.945312 157.894531 180.507812 153.492188 C 178.089844 149.054688 176.59375 143.945312 176.039062 138.164062 C 175.492188 132.386719 176.195312 126.144531 178.160156 119.429688 C 178.445312 118.457031 178.765625 117.519531 179.09375 116.585938 C 180.078125 113.835938 181.257812 111.253906 182.652344 108.859375 C 183.242188 107.835938 183.878906 106.863281 184.550781 105.910156 C 184.894531 105.421875 185.234375 104.933594 185.597656 104.460938 C 185.871094 104.105469 186.144531 103.746094 186.421875 103.402344 C 186.921875 102.792969 187.425781 102.210938 187.9375 101.640625 C 191.238281 97.964844 194.84375 95.078125 198.75 92.996094 C 203.160156 90.648438 207.914062 89.148438 213.007812 88.5 C 218.097656 87.847656 223.148438 88.253906 228.152344 89.726562 C 233.398438 91.261719 238.027344 93.523438 242.035156 96.496094 C 246.042969 99.472656 249.226562 103.148438 251.585938 107.53125 C 253.761719 111.585938 255.066406 116.238281 255.523438 121.464844 C 255.542969 121.742188 255.574219 122.023438 255.601562 122.308594 C 255.652344 123.195312 255.675781 124.101562 255.675781 125.019531 C 255.675781 125.59375 255.671875 126.175781 255.652344 126.765625 C 255.609375 127.886719 255.511719 129.03125 255.386719 130.191406 C 255.085938 132.859375 254.574219 135.628906 253.828125 138.503906 C 253.640625 139.222656 253.441406 139.945312 253.230469 140.679688 C 252.246094 144.039062 250.878906 147.4375 249.121094 150.886719 C 247.359375 154.339844 245.316406 157.414062 242.980469 160.113281 L 232.917969 157.164062 L 239.605469 134.335938 L 241.972656 126.257812 L 242.917969 123.027344 L 243.390625 121.414062 L 244.339844 118.183594 L 247.074219 108.84375 L 233.34375 104.816406 L 232.269531 108.488281 C 231.472656 107.097656 230.21875 105.625 228.488281 104.066406 C 226.753906 102.507812 224.589844 101.347656 221.980469 100.585938 C 218.949219 99.695312 215.683594 99.511719 212.191406 100.027344 C 208.691406 100.542969 205.496094 101.75 202.582031 103.636719 C 201.800781 104.144531 201.039062 104.683594 200.300781 105.265625 C 199.28125 106.070312 198.320312 106.972656 197.386719 107.917969 C 196.949219 108.367188 196.503906 108.8125 196.078125 109.289062 C 195.472656 109.988281 194.886719 110.707031 194.308594 111.46875 C 194.152344 111.6875 193.996094 111.917969 193.839844 112.144531 C 192.304688 114.332031 190.980469 116.863281 189.875 119.746094 C 189.410156 120.941406 188.980469 122.199219 188.597656 123.523438 C 185.960938 132.519531 185.859375 140.261719 188.285156 146.742188 C 190.71875 153.21875 195.144531 157.402344 201.574219 159.285156 C 205.519531 160.445312 208.671875 160.886719 211.019531 160.613281 C 213.371094 160.335938 215.890625 159.78125 218.578125 158.9375 L 218.175781 163.835938 L 248.117188 172.617188 C 251.589844 169.5625 254.941406 165.414062 258.191406 160.171875 C 261.441406 154.933594 263.878906 149.546875 265.5 144.023438 C 265.6875 143.371094 265.84375 142.726562 266.015625 142.082031 C 266.753906 139.265625 267.292969 136.5 267.632812 133.785156 C 267.769531 132.636719 267.886719 131.503906 267.957031 130.375"/></svg>