<svg xmlns="http://www.w3.org/2000/svg" width="375" viewBox="0 0 375 375" height="375" version="1.0"><path fill="#FFF" d="M 244.371094 123.433594 C 240.40625 123.433594 237.175781 126.660156 237.175781 130.628906 C 237.175781 134.59375 240.40625 137.820312 244.371094 137.820312 C 248.339844 137.820312 251.570312 134.59375 251.570312 130.628906 C 251.570312 126.660156 248.339844 123.433594 244.371094 123.433594 Z M 244.371094 123.433594"/><path fill="#FFF" d="M 221.621094 92.601562 L 153.378906 92.601562 C 119.863281 92.601562 92.601562 119.863281 92.601562 153.378906 L 92.601562 221.621094 C 92.601562 255.136719 119.867188 282.398438 153.378906 282.398438 L 221.621094 282.398438 C 255.136719 282.398438 282.398438 255.136719 282.398438 221.621094 L 282.398438 153.378906 C 282.398438 119.863281 255.136719 92.601562 221.621094 92.601562 Z M 187.5 240.46875 C 158.292969 240.46875 134.53125 216.707031 134.53125 187.5 C 134.53125 158.292969 158.292969 134.53125 187.5 134.53125 C 216.707031 134.53125 240.46875 158.292969 240.46875 187.5 C 240.46875 216.707031 216.707031 240.46875 187.5 240.46875 Z M 244.371094 149.171875 C 234.144531 149.171875 225.828125 140.851562 225.828125 130.628906 C 225.828125 120.402344 234.144531 112.082031 244.371094 112.082031 C 254.601562 112.082031 262.917969 120.402344 262.917969 130.628906 C 262.917969 140.851562 254.601562 149.171875 244.371094 149.171875 Z M 244.371094 149.171875"/><path fill="#FFF" d="M 187.5 145.882812 C 164.550781 145.882812 145.882812 164.550781 145.882812 187.5 C 145.882812 210.449219 164.554688 229.117188 187.5 229.117188 C 210.445312 229.117188 229.117188 210.449219 229.117188 187.5 C 229.117188 164.550781 210.449219 145.882812 187.5 145.882812 Z M 187.5 145.882812"/><path fill="#FFF" d="M 187.5 0 C 84.125 0 0 84.125 0 187.5 C 0 290.875 84.125 375 187.5 375 C 290.875 375 375 290.875 375 187.5 C 375 84.125 290.875 0 187.5 0 Z M 293.75 221.621094 C 293.75 261.394531 261.394531 293.75 221.621094 293.75 L 153.378906 293.75 C 113.605469 293.75 81.25 261.394531 81.25 221.621094 L 81.25 153.378906 C 81.25 113.605469 113.605469 81.25 153.378906 81.25 L 221.621094 81.25 C 261.394531 81.25 293.75 113.605469 293.75 153.378906 Z M 293.75 221.621094"/></svg>