<svg xmlns="http://www.w3.org/2000/svg" width="375" viewBox="0 0 375 375" height="375" version="1.0"><path fill="#FFF" d="M 187.5 0 C 84.113281 0 0 84.105469 0 187.5 C 0 290.894531 84.113281 375 187.5 375 C 290.886719 375 375 290.894531 375 187.5 C 375 84.105469 290.886719 0 187.5 0 Z M 130.433594 269.023438 L 97.824219 269.023438 L 97.824219 146.738281 L 130.433594 146.738281 Z M 114.128906 122.28125 C 105.121094 122.28125 97.824219 114.988281 97.824219 105.976562 C 97.824219 96.96875 105.121094 89.675781 114.128906 89.675781 C 123.136719 89.675781 130.433594 96.96875 130.433594 105.976562 C 130.433594 114.988281 123.136719 122.28125 114.128906 122.28125 Z M 285.324219 269.023438 L 252.71875 269.023438 L 252.71875 207.878906 C 252.71875 192.1875 239.878906 179.347656 224.183594 179.347656 C 208.492188 179.347656 195.652344 192.1875 195.652344 207.878906 L 195.652344 269.023438 L 163.042969 269.023438 L 163.042969 146.738281 L 195.652344 146.738281 L 195.652344 161.542969 C 205.175781 152.398438 218.085938 146.738281 232.335938 146.738281 C 261.601562 146.738281 285.324219 170.460938 285.324219 199.726562 Z M 285.324219 269.023438"/></svg>