<svg xmlns="http://www.w3.org/2000/svg" width="375" viewBox="0 0 375 375" height="375" version="1.0"><path fill="#C7EDE6" d="M 359.507812 215.203125 C 360.878906 212.394531 362.09375 209.441406 363.144531 206.34375 C 375.160156 170.914062 356.984375 128.472656 318.71875 118.226562 C 314.582031 66.324219 278.070312 30.71875 236.835938 24.640625 C 189.640625 17.6875 146.398438 47.640625 132.019531 95.246094 C 114.679688 89.109375 97.785156 89.859375 81.859375 99.15625 C 74.636719 102.492188 68.027344 107.417969 62.097656 113.898438 C 53.394531 123.40625 47.734375 135.414062 45.429688 148.070312 C 42.015625 148.609375 38.660156 149.148438 35.5 150.277344 C 17.058594 156.886719 5.425781 170.480469 2.234375 190.964844 C 0.25 203.71875 4.257812 216.4375 6.492188 221.578125 C 15.324219 241.890625 35.804688 253.402344 56.613281 250.359375 C 57.648438 250.207031 59.152344 250.671875 60.042969 251.421875 C 61.144531 283.886719 76.921875 312.597656 100.589844 329 C 138.566406 355.320312 187.425781 347.210938 218.253906 311.125 C 231.460938 324.621094 247.179688 331.179688 265.644531 328.796875 C 284.007812 326.429688 298.265625 316.308594 308.667969 299.847656 C 313.472656 301.140625 318.027344 303 322.738281 303.515625 C 341.183594 305.53125 356.164062 298.203125 367.15625 281.628906 C 371.363281 275.285156 375.335938 267.066406 375.335938 252.65625 C 375.347656 237.804688 369.441406 224.277344 359.507812 215.203125 Z M 359.507812 215.203125"/><path fill="#FFF" d="M 38.496094 178.890625 L -7.285156 178.890625 C -8.546875 178.890625 -9.566406 177.867188 -9.566406 176.609375 C -9.566406 175.351562 -8.546875 174.332031 -7.285156 174.332031 L 38.492188 174.332031 C 39.75 174.332031 40.773438 175.351562 40.773438 176.609375 C 40.773438 177.867188 39.757812 178.890625 38.496094 178.890625 Z M 51.640625 178.890625 L 45.042969 178.890625 C 43.78125 178.890625 42.757812 177.867188 42.757812 176.609375 C 42.757812 175.351562 43.78125 174.332031 45.042969 174.332031 L 51.640625 174.332031 C 52.902344 174.332031 53.921875 175.351562 53.921875 176.609375 C 53.921875 177.867188 52.90625 178.890625 51.640625 178.890625 Z M 70.148438 178.890625 L 58.527344 178.890625 C 57.269531 178.890625 56.246094 177.867188 56.246094 176.609375 C 56.246094 175.351562 57.269531 174.332031 58.527344 174.332031 L 70.148438 174.332031 C 71.40625 174.332031 72.429688 175.351562 72.429688 176.609375 C 72.429688 177.867188 71.40625 178.890625 70.148438 178.890625 Z M 70.148438 187.394531 L 26.261719 187.394531 C 25 187.394531 23.976562 186.371094 23.976562 185.113281 C 23.976562 183.855469 25 182.835938 26.261719 182.835938 L 70.148438 182.835938 C 71.40625 182.835938 72.429688 183.855469 72.429688 185.113281 C 72.429688 186.371094 71.40625 187.394531 70.148438 187.394531 Z M 18.355469 187.394531 L 15.707031 187.394531 C 14.449219 187.394531 13.425781 186.371094 13.425781 185.113281 C 13.425781 183.855469 14.449219 182.835938 15.707031 182.835938 L 18.355469 182.835938 C 19.617188 182.835938 20.636719 183.855469 20.636719 185.113281 C 20.636719 186.371094 19.621094 187.394531 18.355469 187.394531 Z M 7.507812 187.394531 L 0.863281 187.394531 C -0.398438 187.394531 -1.421875 186.371094 -1.421875 185.113281 C -1.421875 183.855469 -0.398438 182.835938 0.863281 182.835938 L 7.507812 182.835938 C 8.765625 182.835938 9.789062 183.855469 9.789062 185.113281 C 9.789062 186.371094 8.769531 187.394531 7.507812 187.394531 Z M 49.203125 170.386719 L 26.261719 170.386719 C 25 170.386719 23.976562 169.363281 23.976562 168.105469 C 23.976562 166.847656 25 165.828125 26.261719 165.828125 L 49.203125 165.828125 C 50.464844 165.828125 51.484375 166.847656 51.484375 168.105469 C 51.484375 169.363281 50.46875 170.386719 49.203125 170.386719 Z M 49.203125 161.882812 L 43.46875 161.882812 C 42.207031 161.882812 41.183594 160.859375 41.183594 159.601562 C 41.183594 158.34375 42.207031 157.324219 43.46875 157.324219 L 49.203125 157.324219 C 50.464844 157.324219 51.484375 158.34375 51.484375 159.601562 C 51.484375 160.859375 50.46875 161.882812 49.203125 161.882812 Z M 34.289062 195.898438 L 26.261719 195.898438 C 25 195.898438 23.976562 194.875 23.976562 193.617188 C 23.976562 192.359375 25 191.335938 26.261719 191.335938 L 34.289062 191.335938 C 35.546875 191.335938 36.570312 192.359375 36.570312 193.617188 C 36.570312 194.875 35.546875 195.898438 34.289062 195.898438 Z M 294.199219 77.113281 L 248.421875 77.113281 C 247.160156 77.113281 246.136719 76.09375 246.136719 74.835938 C 246.136719 73.574219 247.160156 72.554688 248.421875 72.554688 L 294.199219 72.554688 C 295.457031 72.554688 296.480469 73.574219 296.480469 74.835938 C 296.480469 76.09375 295.460938 77.113281 294.199219 77.113281 Z M 307.351562 77.113281 L 300.753906 77.113281 C 299.492188 77.113281 298.46875 76.09375 298.46875 74.835938 C 298.46875 73.574219 299.492188 72.554688 300.753906 72.554688 L 307.351562 72.554688 C 308.609375 72.554688 309.632812 73.574219 309.632812 74.835938 C 309.632812 76.09375 308.609375 77.113281 307.351562 77.113281 Z M 325.855469 77.113281 L 314.234375 77.113281 C 312.972656 77.113281 311.953125 76.09375 311.953125 74.835938 C 311.953125 73.574219 312.972656 72.554688 314.234375 72.554688 L 325.855469 72.554688 C 327.113281 72.554688 328.136719 73.574219 328.136719 74.835938 C 328.136719 76.09375 327.113281 77.113281 325.855469 77.113281 Z M 325.855469 85.617188 L 281.964844 85.617188 C 280.707031 85.617188 279.683594 84.597656 279.683594 83.335938 C 279.683594 82.078125 280.707031 81.058594 281.964844 81.058594 L 325.855469 81.058594 C 327.113281 81.058594 328.136719 82.078125 328.136719 83.335938 C 328.136719 84.597656 327.113281 85.617188 325.855469 85.617188 Z M 274.0625 85.617188 L 271.414062 85.617188 C 270.15625 85.617188 269.132812 84.597656 269.132812 83.335938 C 269.132812 82.078125 270.15625 81.058594 271.414062 81.058594 L 274.0625 81.058594 C 275.320312 81.058594 276.34375 82.078125 276.34375 83.335938 C 276.34375 84.597656 275.324219 85.617188 274.0625 85.617188 Z M 263.210938 85.617188 L 256.566406 85.617188 C 255.308594 85.617188 254.285156 84.597656 254.285156 83.335938 C 254.285156 82.078125 255.308594 81.058594 256.566406 81.058594 L 263.210938 81.058594 C 264.472656 81.058594 265.496094 82.078125 265.496094 83.335938 C 265.496094 84.597656 264.476562 85.617188 263.210938 85.617188 Z M 304.910156 68.613281 L 281.964844 68.613281 C 280.707031 68.613281 279.683594 67.59375 279.683594 66.335938 C 279.683594 65.078125 280.707031 64.054688 281.964844 64.054688 L 304.910156 64.054688 C 306.167969 64.054688 307.191406 65.078125 307.191406 66.335938 C 307.191406 67.59375 306.167969 68.613281 304.910156 68.613281 Z M 304.910156 60.105469 L 299.171875 60.105469 C 297.914062 60.105469 296.890625 59.085938 296.890625 57.828125 C 296.890625 56.566406 297.914062 55.546875 299.171875 55.546875 L 304.910156 55.546875 C 306.167969 55.546875 307.191406 56.566406 307.191406 57.828125 C 307.191406 59.085938 306.167969 60.105469 304.910156 60.105469 Z M 289.996094 94.121094 L 281.964844 94.121094 C 280.707031 94.121094 279.683594 93.101562 279.683594 91.839844 C 279.683594 90.582031 280.707031 89.5625 281.964844 89.5625 L 289.996094 89.5625 C 291.253906 89.5625 292.277344 90.582031 292.277344 91.839844 C 292.277344 93.101562 291.253906 94.121094 289.996094 94.121094 Z M 289.996094 94.121094"/><path fill="#FDFCEF" d="M 296.804688 182.6875 C 296.804688 182.6875 345.257812 182.6875 345.554688 182.6875 C 356.742188 182.6875 365.8125 173.628906 365.8125 162.449219 C 365.8125 152.695312 358.90625 144.554688 349.714844 142.640625 C 349.820312 141.789062 349.894531 140.921875 349.894531 140.042969 C 349.894531 128.464844 340.5 119.078125 328.914062 119.078125 C 322.070312 119.078125 316.007812 122.363281 312.179688 127.425781 C 311.199219 114.539062 299.679688 104.59375 286.195312 106.242188 C 276.339844 107.445312 268.183594 115.058594 266.371094 124.8125 C 265.792969 127.941406 265.851562 130.976562 266.429688 133.828125 C 263.789062 130.980469 260.027344 129.195312 255.832031 129.195312 C 248.164062 129.195312 241.902344 135.160156 241.410156 142.695312 C 237.929688 141.925781 234.140625 141.976562 230.152344 143.46875 C 222.523438 146.328125 217.09375 153.5 216.777344 161.632812 C 216.324219 173.179688 225.5625 182.683594 237.019531 182.683594 C 237.890625 182.683594 240.949219 182.683594 241.652344 182.683594 L 283.722656 182.683594"/><path fill="#472B29" d="M 345.554688 184.96875 L 296.804688 184.96875 C 295.542969 184.96875 294.523438 183.945312 294.523438 182.6875 C 294.523438 181.429688 295.542969 180.410156 296.804688 180.410156 L 345.554688 180.410156 C 355.464844 180.410156 363.53125 172.351562 363.53125 162.449219 C 363.53125 153.988281 357.523438 146.59375 349.25 144.871094 C 348.089844 144.628906 347.308594 143.539062 347.453125 142.363281 C 347.546875 141.601562 347.609375 140.832031 347.609375 140.042969 C 347.609375 129.742188 339.222656 121.355469 328.90625 121.355469 C 323.011719 121.355469 317.574219 124.070312 313.996094 128.800781 C 313.425781 129.5625 312.449219 129.898438 311.53125 129.613281 C 310.625 129.34375 309.972656 128.546875 309.902344 127.597656 C 309.472656 121.953125 306.707031 116.652344 302.3125 113.054688 C 297.871094 109.414062 292.238281 107.808594 286.472656 108.507812 C 277.585938 109.59375 270.242188 116.472656 268.613281 125.230469 C 268.101562 127.972656 268.117188 130.707031 268.664062 133.375 C 268.867188 134.378906 268.378906 135.390625 267.472656 135.859375 C 266.566406 136.332031 265.449219 136.132812 264.753906 135.386719 C 262.414062 132.871094 259.242188 131.484375 255.828125 131.484375 C 249.4375 131.484375 244.101562 136.476562 243.683594 142.855469 C 243.636719 143.519531 243.308594 144.132812 242.773438 144.527344 C 242.242188 144.925781 241.554688 145.066406 240.914062 144.929688 C 237.472656 144.171875 234.210938 144.394531 230.949219 145.613281 C 224.109375 148.175781 219.328125 154.65625 219.054688 161.730469 C 218.863281 166.671875 220.640625 171.347656 224.058594 174.90625 C 227.480469 178.460938 232.082031 180.417969 237.015625 180.417969 L 283.71875 180.417969 C 284.980469 180.417969 286 181.4375 286 182.699219 C 286 183.957031 284.980469 184.976562 283.71875 184.976562 L 237.019531 184.976562 C 230.835938 184.976562 225.0625 182.519531 220.769531 178.066406 C 216.484375 173.605469 214.253906 167.746094 214.496094 161.554688 C 214.84375 152.671875 220.808594 144.550781 229.347656 141.347656 C 232.636719 140.113281 236.035156 139.691406 239.484375 140.074219 C 241.136719 132.527344 247.890625 126.921875 255.832031 126.921875 C 258.585938 126.921875 261.28125 127.613281 263.683594 128.890625 C 263.699219 127.398438 263.847656 125.902344 264.125 124.40625 C 266.117188 113.710938 275.074219 105.3125 285.917969 103.988281 C 292.929688 103.109375 299.789062 105.097656 305.207031 109.53125 C 309.308594 112.894531 312.25 117.476562 313.636719 122.53125 C 317.832031 118.847656 323.199219 116.804688 328.914062 116.804688 C 341.742188 116.804688 352.179688 127.234375 352.179688 140.050781 C 352.179688 140.34375 352.175781 140.632812 352.160156 140.925781 C 361.507812 143.789062 368.097656 152.539062 368.097656 162.460938 C 368.09375 174.863281 357.980469 184.96875 345.554688 184.96875 Z M 345.554688 184.96875"/><path fill="#FDFCEF" d="M 285.0625 138.097656 C 277.566406 137.605469 271.117188 142.777344 270.652344 149.648438 C 270.59375 150.5 270.632812 151.339844 270.757812 152.15625 C 269.308594 150.523438 267.167969 149.421875 264.714844 149.257812 C 260.21875 148.960938 256.335938 151.929688 255.773438 155.964844 C 254.957031 155.742188 254.101562 155.589844 253.21875 155.53125 C 246.660156 155.101562 241.011719 159.625 240.613281 165.636719"/><path fill="#472B29" d="M 240.617188 166.78125 C 240.589844 166.78125 240.5625 166.78125 240.539062 166.78125 C 239.910156 166.738281 239.433594 166.195312 239.476562 165.566406 C 239.925781 158.941406 246.074219 153.972656 253.292969 154.398438 C 253.828125 154.4375 254.367188 154.5 254.90625 154.601562 C 256.09375 150.597656 260.191406 147.796875 264.792969 148.125 C 266.484375 148.234375 268.113281 148.769531 269.511719 149.640625 C 269.511719 149.617188 269.515625 149.597656 269.515625 149.574219 C 270.019531 142.09375 277.027344 136.5 285.136719 136.96875 C 285.769531 137.007812 286.242188 137.550781 286.203125 138.179688 C 286.160156 138.8125 285.632812 139.28125 284.988281 139.242188 C 278.082031 138.773438 272.210938 143.496094 271.792969 149.730469 C 271.742188 150.480469 271.773438 151.238281 271.890625 151.996094 C 271.964844 152.492188 271.703125 152.988281 271.242188 153.199219 C 270.789062 153.414062 270.242188 153.304688 269.902344 152.921875 C 268.605469 151.460938 266.691406 150.542969 264.644531 150.40625 C 260.757812 150.152344 257.390625 152.667969 256.910156 156.132812 C 256.863281 156.457031 256.679688 156.742188 256.40625 156.925781 C 256.128906 157.109375 255.796875 157.164062 255.476562 157.078125 C 254.699219 156.867188 253.914062 156.734375 253.148438 156.683594 C 247.226562 156.304688 242.117188 160.355469 241.753906 165.726562 C 241.710938 166.320312 241.214844 166.78125 240.617188 166.78125 Z M 240.617188 166.78125"/><path fill="#FDFCEF" d="M 353.753906 145.011719 C 346.710938 141.695312 338.570312 144.039062 335.566406 150.253906 C 335.191406 151.027344 334.917969 151.824219 334.734375 152.632812"/><path fill="#472B29" d="M 334.730469 153.769531 C 334.648438 153.769531 334.5625 153.761719 334.476562 153.742188 C 333.859375 153.601562 333.476562 152.992188 333.617188 152.378906 C 333.824219 151.472656 334.132812 150.589844 334.535156 149.761719 C 337.804688 142.996094 346.652344 140.410156 354.238281 143.984375 C 354.808594 144.253906 355.054688 144.933594 354.785156 145.503906 C 354.515625 146.074219 353.835938 146.316406 353.265625 146.050781 C 346.796875 143.003906 339.316406 145.117188 336.589844 150.761719 C 336.261719 151.4375 336.007812 152.152344 335.839844 152.894531 C 335.726562 153.410156 335.257812 153.769531 334.730469 153.769531 Z M 334.730469 153.769531"/><path fill="#006DEF" d="M 252.511719 280.390625 L 135.113281 280.390625 C 117.925781 280.390625 103.863281 266.34375 103.863281 249.171875 L 103.863281 131.890625 C 103.863281 114.71875 117.925781 100.667969 135.113281 100.667969 L 252.511719 100.667969 C 269.699219 100.667969 283.761719 114.71875 283.761719 131.890625 L 283.761719 249.171875 C 283.765625 266.34375 269.699219 280.390625 252.511719 280.390625 Z M 252.511719 280.390625"/><path fill="#472B29" d="M 252.511719 283.585938 L 135.113281 283.585938 C 116.117188 283.585938 100.667969 268.144531 100.667969 249.171875 L 100.667969 131.890625 C 100.667969 112.910156 116.121094 97.476562 135.113281 97.476562 L 252.511719 97.476562 C 271.503906 97.476562 286.960938 112.917969 286.960938 131.890625 L 286.960938 249.171875 C 286.960938 268.148438 271.503906 283.585938 252.511719 283.585938 Z M 135.113281 103.859375 C 119.640625 103.859375 107.058594 116.433594 107.058594 131.890625 L 107.058594 249.171875 C 107.058594 264.628906 119.640625 277.199219 135.113281 277.199219 L 252.511719 277.199219 C 267.980469 277.199219 280.566406 264.628906 280.566406 249.171875 L 280.566406 131.890625 C 280.566406 116.433594 267.976562 103.859375 252.511719 103.859375 Z M 135.113281 103.859375"/><path fill="#FDFCEE" d="M 245.585938 267.558594 L 142.035156 267.558594 C 128.105469 267.558594 116.710938 256.171875 116.710938 242.253906 L 116.710938 138.804688 C 116.710938 124.890625 128.109375 113.503906 142.035156 113.503906 L 245.585938 113.503906 C 259.515625 113.503906 270.914062 124.890625 270.914062 138.804688 L 270.914062 242.253906 C 270.914062 256.171875 259.515625 267.558594 245.585938 267.558594 Z M 245.585938 267.558594"/><path fill="#472B29" d="M 247.480469 269.152344 L 140.144531 269.152344 C 126.339844 269.152344 115.113281 257.9375 115.113281 244.148438 L 115.113281 136.914062 C 115.113281 123.125 126.339844 111.910156 140.144531 111.910156 L 242.355469 111.910156 C 243.234375 111.910156 243.953125 112.625 243.953125 113.503906 C 243.953125 114.382812 243.234375 115.101562 242.355469 115.101562 L 140.144531 115.101562 C 128.101562 115.101562 118.308594 124.886719 118.308594 136.914062 L 118.308594 244.144531 C 118.308594 256.171875 128.101562 265.957031 140.144531 265.957031 L 247.480469 265.957031 C 259.519531 265.957031 269.316406 256.171875 269.316406 244.144531 L 269.316406 184.820312 C 269.316406 183.941406 270.03125 183.226562 270.914062 183.226562 C 271.792969 183.226562 272.507812 183.941406 272.507812 184.820312 L 272.507812 244.144531 C 272.507812 257.9375 261.28125 269.152344 247.480469 269.152344 Z M 247.480469 269.152344"/><path fill="#472B29" d="M 270.914062 177.863281 C 270.03125 177.863281 269.316406 177.148438 269.316406 176.269531 L 269.316406 164.855469 C 269.316406 163.976562 270.03125 163.257812 270.914062 163.257812 C 271.792969 163.257812 272.507812 163.976562 272.507812 164.855469 L 272.507812 176.269531 C 272.507812 177.148438 271.792969 177.863281 270.914062 177.863281 Z M 270.914062 160.746094 C 270.03125 160.746094 269.316406 160.03125 269.316406 159.152344 L 269.316406 153.445312 C 269.316406 152.566406 270.03125 151.851562 270.914062 151.851562 C 271.792969 151.851562 272.507812 152.566406 272.507812 153.445312 L 272.507812 159.152344 C 272.507812 160.03125 271.792969 160.746094 270.914062 160.746094 Z M 270.914062 160.746094"/><path fill="#127AD8" d="M 235.320312 198.511719 L 235.320312 226.210938 L 218.976562 226.210938 L 218.75 198.746094 C 218.75 191.792969 215.582031 186.851562 209.332031 186.851562 C 204.566406 186.851562 201.738281 190.039062 200.488281 193.132812 C 200.042969 194.234375 199.910156 195.785156 199.910156 197.328125 L 199.910156 226.210938 L 183.355469 226.210938 C 183.355469 226.210938 183.578125 179.355469 183.355469 174.507812 L 199.910156 174.507812 L 199.910156 182.488281 C 199.871094 182.546875 199.835938 182.609375 199.796875 182.667969 L 199.910156 182.667969 L 199.910156 182.488281 C 202.210938 178.648438 206.410156 174.179688 215.578125 174.179688 C 226.9375 174.15625 235.320312 181.230469 235.320312 198.511719 Z M 164.550781 150.128906 C 159.441406 150.128906 156.101562 153.628906 156.101562 158.234375 C 156.101562 162.734375 159.339844 166.339844 164.355469 166.339844 L 164.449219 166.339844 C 169.664062 166.339844 172.898438 162.734375 172.898438 158.234375 C 172.789062 153.632812 169.648438 150.128906 164.550781 150.128906 Z M 156.332031 226.210938 L 172.675781 226.210938 L 172.675781 174.507812 L 156.332031 174.507812 Z M 156.332031 226.210938"/><path fill="#472B29" d="M 235.320312 227.804688 L 218.976562 227.804688 C 218.101562 227.804688 217.386719 227.097656 217.378906 226.222656 L 217.15625 198.761719 C 217.15625 195.652344 216.394531 188.445312 209.339844 188.445312 C 204.625 188.445312 202.617188 192.144531 201.976562 193.730469 C 201.667969 194.484375 201.511719 195.691406 201.511719 197.328125 L 201.511719 226.210938 C 201.511719 227.089844 200.792969 227.804688 199.914062 227.804688 L 183.359375 227.804688 C 182.933594 227.804688 182.523438 227.636719 182.226562 227.335938 C 181.925781 227.035156 181.757812 226.625 181.761719 226.199219 C 181.761719 225.730469 181.980469 179.328125 181.761719 174.578125 C 181.746094 174.140625 181.898438 173.71875 182.207031 173.398438 C 182.507812 173.085938 182.921875 172.90625 183.359375 172.90625 L 199.914062 172.90625 C 200.792969 172.90625 201.511719 173.625 201.511719 174.503906 L 201.511719 177.808594 C 205.007812 174.296875 209.648438 172.578125 215.582031 172.578125 C 215.601562 172.578125 215.617188 172.578125 215.632812 172.578125 C 221.65625 172.578125 226.5625 174.421875 230.199219 178.050781 C 234.660156 182.496094 236.917969 189.382812 236.917969 198.503906 L 236.917969 226.207031 C 236.921875 227.089844 236.207031 227.804688 235.320312 227.804688 Z M 220.566406 224.613281 L 233.730469 224.613281 L 233.730469 198.511719 C 233.730469 190.261719 231.785156 184.136719 227.945312 180.3125 C 224.925781 177.296875 220.78125 175.769531 215.632812 175.769531 C 215.617188 175.769531 215.601562 175.769531 215.585938 175.769531 C 206.964844 175.769531 203.351562 179.929688 201.386719 183.140625 C 200.929688 184.300781 199.074219 184.527344 198.472656 183.449219 C 198.234375 183.027344 198.160156 182.523438 198.320312 182.085938 L 198.320312 176.097656 L 185.003906 176.097656 C 185.140625 184.648438 185.003906 216.894531 184.972656 224.609375 L 198.320312 224.609375 L 198.320312 197.324219 C 198.320312 195.242188 198.550781 193.671875 199.019531 192.527344 C 200.859375 187.972656 204.722656 185.25 209.34375 185.25 C 216.132812 185.25 220.355469 190.421875 220.355469 198.742188 Z M 172.675781 227.804688 L 156.332031 227.804688 C 155.449219 227.804688 154.734375 227.089844 154.734375 226.210938 L 154.734375 174.507812 C 154.734375 173.628906 155.449219 172.914062 156.332031 172.914062 L 172.675781 172.914062 C 173.554688 172.914062 174.273438 173.628906 174.273438 174.507812 L 174.273438 226.210938 C 174.273438 227.089844 173.554688 227.804688 172.675781 227.804688 Z M 157.929688 224.613281 L 171.074219 224.613281 L 171.074219 176.105469 L 157.929688 176.105469 Z M 164.457031 167.9375 C 158.648438 167.9375 154.507812 163.855469 154.507812 158.234375 C 154.507812 152.613281 158.730469 148.53125 164.550781 148.53125 C 170.265625 148.53125 174.359375 152.507812 174.5 158.195312 C 174.5 163.855469 170.273438 167.9375 164.457031 167.9375 Z M 164.550781 151.726562 C 160.457031 151.726562 157.707031 154.34375 157.707031 158.238281 C 157.707031 162.074219 160.445312 164.75 164.359375 164.75 C 168.554688 164.75 171.304688 162.132812 171.304688 158.238281 C 171.207031 154.300781 168.558594 151.726562 164.550781 151.726562 Z M 164.550781 151.726562"/><path fill="#FDFCEF" d="M 146.925781 291.851562 C 154.730469 291.851562 161.503906 291.851562 161.597656 291.851562 C 170.34375 291.851562 177.429688 284.921875 177.429688 276.367188 C 177.429688 268.90625 172.035156 262.683594 164.851562 261.214844 C 164.933594 260.5625 164.992188 259.902344 164.992188 259.226562 C 164.992188 250.371094 157.652344 243.191406 148.59375 243.191406 C 143.246094 243.191406 138.511719 245.703125 135.519531 249.578125 C 134.753906 239.71875 125.746094 232.113281 115.210938 233.375 C 107.503906 234.292969 101.132812 240.117188 99.714844 247.582031 C 99.257812 249.976562 99.308594 252.296875 99.761719 254.476562 C 97.691406 252.300781 94.753906 250.933594 91.480469 250.933594 C 85.488281 250.933594 80.59375 255.496094 80.207031 261.261719 C 77.488281 260.671875 74.527344 260.707031 71.40625 261.851562 C 65.449219 264.042969 61.203125 269.527344 60.957031 275.746094 C 60.605469 284.578125 67.820312 291.851562 76.78125 291.851562 C 77.460938 291.851562 79.851562 291.851562 80.402344 291.851562 L 113.285156 291.851562 M 120.082031 291.851562 L 121.578125 291.851562"/><path fill="#472B29" d="M 161.597656 294.128906 L 146.925781 294.128906 C 145.664062 294.128906 144.644531 293.109375 144.644531 291.851562 C 144.644531 290.59375 145.664062 289.570312 146.925781 289.570312 L 161.597656 289.570312 C 169.070312 289.570312 175.148438 283.648438 175.148438 276.367188 C 175.148438 270.15625 170.625 264.722656 164.394531 263.449219 C 163.226562 263.210938 162.4375 262.113281 162.589844 260.933594 C 162.660156 260.371094 162.707031 259.804688 162.707031 259.226562 C 162.707031 251.640625 156.378906 245.46875 148.589844 245.46875 C 144.128906 245.46875 140.023438 247.472656 137.316406 250.96875 C 136.742188 251.710938 135.765625 252.027344 134.859375 251.757812 C 133.953125 251.488281 133.308594 250.691406 133.238281 249.75 C 132.914062 245.589844 130.921875 241.8125 127.636719 239.117188 C 124.246094 236.339844 119.9375 235.097656 115.472656 235.636719 C 108.742188 236.4375 103.179688 241.527344 101.949219 248 C 101.566406 250.019531 101.578125 252.039062 101.988281 254.011719 C 102.191406 255.007812 101.714844 256.019531 100.808594 256.496094 C 99.910156 256.964844 98.800781 256.78125 98.097656 256.039062 C 96.363281 254.214844 94.007812 253.207031 91.472656 253.207031 C 86.734375 253.207031 82.785156 256.808594 82.476562 261.410156 C 82.429688 262.070312 82.101562 262.679688 81.574219 263.078125 C 81.042969 263.480469 80.371094 263.625 79.714844 263.484375 C 77.117188 262.925781 74.652344 263.089844 72.1875 263.988281 C 67.039062 265.878906 63.4375 270.640625 63.230469 275.832031 C 63.085938 279.398438 64.382812 282.789062 66.878906 285.386719 C 69.472656 288.078125 72.984375 289.5625 76.769531 289.5625 L 113.273438 289.5625 C 114.535156 289.5625 115.554688 290.582031 115.554688 291.839844 C 115.554688 293.101562 114.535156 294.121094 113.273438 294.121094 L 76.769531 294.121094 C 71.804688 294.121094 67 292.085938 63.589844 288.546875 C 60.226562 285.046875 58.476562 280.46875 58.667969 275.648438 C 58.953125 268.632812 63.753906 262.226562 70.617188 259.707031 C 73.125 258.789062 75.714844 258.445312 78.324219 258.664062 C 79.839844 252.882812 85.199219 248.644531 91.476562 248.644531 C 93.445312 248.644531 95.375 249.070312 97.140625 249.871094 C 97.191406 248.960938 97.300781 248.054688 97.472656 247.148438 C 99.070312 238.738281 106.253906 232.140625 114.941406 231.101562 C 120.621094 230.421875 126.175781 232.015625 130.535156 235.585938 C 133.585938 238.082031 135.769531 241.308594 136.921875 244.921875 C 140.191406 242.332031 144.269531 240.902344 148.589844 240.902344 C 158.890625 240.902344 167.273438 249.117188 167.273438 259.21875 C 167.273438 259.308594 167.273438 259.398438 167.273438 259.492188 C 174.59375 261.863281 179.71875 268.664062 179.71875 276.363281 C 179.714844 286.160156 171.589844 294.128906 161.597656 294.128906 Z M 121.570312 294.128906 L 120.078125 294.128906 C 118.820312 294.128906 117.796875 293.109375 117.796875 291.851562 C 117.796875 290.59375 118.820312 289.570312 120.078125 289.570312 L 121.570312 289.570312 C 122.832031 289.570312 123.855469 290.59375 123.855469 291.851562 C 123.855469 293.109375 122.835938 294.128906 121.570312 294.128906 Z M 121.570312 294.128906"/><path fill="#472B29" d="M 154.519531 270 C 154.4375 270 154.355469 269.992188 154.269531 269.972656 C 153.652344 269.835938 153.269531 269.226562 153.40625 268.609375 C 153.5625 267.917969 153.796875 267.242188 154.117188 266.605469 C 156.644531 261.484375 163.628906 259.589844 169.679688 262.386719 C 170.25 262.652344 170.503906 263.332031 170.238281 263.898438 C 169.972656 264.472656 169.292969 264.714844 168.722656 264.457031 C 163.789062 262.179688 158.152344 263.59375 156.164062 267.613281 C 155.929688 268.085938 155.75 268.585938 155.632812 269.105469 C 155.515625 269.636719 155.042969 270 154.519531 270 Z M 133.140625 294.128906 L 128.550781 294.128906 C 127.289062 294.128906 126.269531 293.109375 126.269531 291.851562 C 126.269531 290.59375 127.289062 289.570312 128.550781 289.570312 L 133.136719 289.570312 C 134.398438 289.570312 135.417969 290.59375 135.417969 291.851562 C 135.417969 293.109375 134.402344 294.128906 133.140625 294.128906 Z M 133.140625 294.128906"/></svg>